{"asset":{"version":"2.0","generator":"THREE.GLTFExporter"},"scenes":[{"name":"AuxScene","nodes":[9]}],"scene":0,"nodes":[{"matrix":[1,0,0,0,0,1,0,0,0,0,1,0,0,3,0,1],"mesh":0},{"matrix":[1,0,0,0,0,1,0,0,0,0,1,0,0,23.5,0,1],"mesh":1},{"matrix":[1,0,0,0,0,1,0,0,0,0,1,0,0,32,0,1],"mesh":2},{"matrix":[1,0,0,0,0,1,0,0,0,0,1,0,0,45,0,1],"mesh":3},{"matrix":[0.7071067811865475,0,-0.7071067811865476,0,0,1,0,0,0.7071067811865476,0,0.7071067811865475,0,0,67.5,0,1],"mesh":4},{"matrix":[1,0,0,0,0,1,0,0,0,0,1,0,20,17,35,1],"mesh":5},{"matrix":[1,0,0,0,0,1,0,0,0,0,1,0,-20,24,35,1],"mesh":6},{"matrix":[1,0,0,0,0,1,0,0,0,0,1,0,48,23.5,33,1],"mesh":7},{"matrix":[1,0,0,0,0,1,0,0,0,0,1,0,-48,23.5,33,1],"mesh":8},{"children":[0,1,2,3,4,5,6,7,8]}],"bufferViews":[{"buffer":0,"byteOffset":0,"byteLength":288,"target":34962,"byteStride":12},{"buffer":0,"byteOffset":288,"byteLength":288,"target":34962,"byteStride":12},{"buffer":0,"byteOffset":576,"byteLength":192,"target":34962,"byteStride":8},{"buffer":0,"byteOffset":768,"byteLength":72,"target":34963},{"buffer":0,"byteOffset":840,"byteLength":288,"target":34962,"byteStride":12},{"buffer":0,"byteOffset":1128,"byteLength":288,"target":34962,"byteStride":12},{"buffer":0,"byteOffset":1416,"byteLength":192,"target":34962,"byteStride":8},{"buffer":0,"byteOffset":1608,"byteLength":72,"target":34963},{"buffer":0,"byteOffset":1680,"byteLength":288,"target":34962,"byteStride":12},{"buffer":0,"byteOffset":1968,"byteLength":288,"target":34962,"byteStride":12},{"buffer":0,"byteOffset":2256,"byteLength":192,"target":34962,"byteStride":8},{"buffer":0,"byteOffset":2448,"byteLength":72,"target":34963},{"buffer":0,"byteOffset":2520,"byteLength":288,"target":34962,"byteStride":12},{"buffer":0,"byteOffset":2808,"byteLength":288,"target":34962,"byteStride":12},{"buffer":0,"byteOffset":3096,"byteLength":192,"target":34962,"byteStride":8},{"buffer":0,"byteOffset":3288,"byteLength":72,"target":34963},{"buffer":0,"byteOffset":3360,"byteLength":228,"target":34962,"byteStride":12},{"buffer":0,"byteOffset":3588,"byteLength":228,"target":34962,"byteStride":12},{"buffer":0,"byteOffset":3816,"byteLength":152,"target":34962,"byteStride":8},{"buffer":0,"byteOffset":3968,"byteLength":72,"target":34963},{"buffer":0,"byteOffset":4040,"byteLength":288,"target":34962,"byteStride":12},{"buffer":0,"byteOffset":4328,"byteLength":288,"target":34962,"byteStride":12},{"buffer":0,"byteOffset":4616,"byteLength":192,"target":34962,"byteStride":8},{"buffer":0,"byteOffset":4808,"byteLength":72,"target":34963},{"buffer":0,"byteOffset":4880,"byteLength":288,"target":34962,"byteStride":12},{"buffer":0,"byteOffset":5168,"byteLength":288,"target":34962,"byteStride":12},{"buffer":0,"byteOffset":5456,"byteLength":192,"target":34962,"byteStride":8},{"buffer":0,"byteOffset":5648,"byteLength":72,"target":34963},{"buffer":0,"byteOffset":5720,"byteLength":288,"target":34962,"byteStride":12},{"buffer":0,"byteOffset":6008,"byteLength":288,"target":34962,"byteStride":12},{"buffer":0,"byteOffset":6296,"byteLength":192,"target":34962,"byteStride":8},{"buffer":0,"byteOffset":6488,"byteLength":72,"target":34963},{"buffer":0,"byteOffset":6560,"byteLength":288,"target":34962,"byteStride":12},{"buffer":0,"byteOffset":6848,"byteLength":288,"target":34962,"byteStride":12},{"buffer":0,"byteOffset":7136,"byteLength":192,"target":34962,"byteStride":8},{"buffer":0,"byteOffset":7328,"byteLength":72,"target":34963}],"buffers":[{"byteLength":7400,"uri":"data:application/octet-stream;base64,"}],"accessors":[{"bufferView":0,"componentType":5126,"count":24,"max":[60,3,45],"min":[-60,-3,-45],"type":"VEC3"},{"bufferView":1,"componentType":5126,"count":24,"max":[1,1,1],"min":[-1,-1,-1],"type":"VEC3"},{"bufferView":2,"componentType":5126,"count":24,"max":[1,1],"min":[0,0],"type":"VEC2"},{"bufferView":3,"componentType":5123,"count":36,"max":[23],"min":[0],"type":"SCALAR"},{"bufferView":4,"componentType":5126,"count":24,"max":[50,17.5,35],"min":[-50,-17.5,-35],"type":"VEC3"},{"bufferView":5,"componentType":5126,"count":24,"max":[1,1,1],"min":[-1,-1,-1],"type":"VEC3"},{"bufferView":6,"componentType":5126,"count":24,"max":[1,1],"min":[0,0],"type":"VEC2"},{"bufferView":7,"componentType":5123,"count":36,"max":[23],"min":[0],"type":"SCALAR"},{"bufferView":8,"componentType":5126,"count":24,"max":[62.5,2,47.5],"min":[-62.5,-2,-47.5],"type":"VEC3"},{"bufferView":9,"componentType":5126,"count":24,"max":[1,1,1],"min":[-1,-1,-1],"type":"VEC3"},{"bufferView":10,"componentType":5126,"count":24,"max":[1,1],"min":[0,0],"type":"VEC2"},{"bufferView":11,"componentType":5123,"count":36,"max":[23],"min":[0],"type":"SCALAR"},{"bufferView":12,"componentType":5126,"count":24,"max":[35,10,25],"min":[-35,-10,-25],"type":"VEC3"},{"bufferView":13,"componentType":5126,"count":24,"max":[1,1,1],"min":[-1,-1,-1],"type":"VEC3"},{"bufferView":14,"componentType":5126,"count":24,"max":[1,1],"min":[0,0],"type":"VEC2"},{"bufferView":15,"componentType":5123,"count":36,"max":[23],"min":[0],"type":"SCALAR"},{"bufferView":16,"componentType":5126,"count":19,"max":[67.5,12.5,67.5],"min":[-67.5,-12.5,-67.5],"type":"VEC3"},{"bufferView":17,"componentType":5126,"count":19,"max":[0.34731435775756836,0.9377487897872925,0.34731435775756836],"min":[-0.34731435775756836,-1,-0.34731435775756836],"type":"VEC3"},{"bufferView":18,"componentType":5126,"count":19,"max":[1,1],"min":[0,0],"type":"VEC2"},{"bufferView":19,"componentType":5123,"count":36,"max":[18],"min":[0],"type":"SCALAR"},{"bufferView":20,"componentType":5126,"count":24,"max":[10,11,1],"min":[-10,-11,-1],"type":"VEC3"},{"bufferView":21,"componentType":5126,"count":24,"max":[1,1,1],"min":[-1,-1,-1],"type":"VEC3"},{"bufferView":22,"componentType":5126,"count":24,"max":[1,1],"min":[0,0],"type":"VEC2"},{"bufferView":23,"componentType":5123,"count":36,"max":[23],"min":[0],"type":"SCALAR"},{"bufferView":24,"componentType":5126,"count":24,"max":[15,9,1],"min":[-15,-9,-1],"type":"VEC3"},{"bufferView":25,"componentType":5126,"count":24,"max":[1,1,1],"min":[-1,-1,-1],"type":"VEC3"},{"bufferView":26,"componentType":5126,"count":24,"max":[1,1],"min":[0,0],"type":"VEC2"},{"bufferView":27,"componentType":5123,"count":36,"max":[23],"min":[0],"type":"SCALAR"},{"bufferView":28,"componentType":5126,"count":24,"max":[2,17.5,2],"min":[-2,-17.5,-2],"type":"VEC3"},{"bufferView":29,"componentType":5126,"count":24,"max":[1,1,1],"min":[-1,-1,-1],"type":"VEC3"},{"bufferView":30,"componentType":5126,"count":24,"max":[1,1],"min":[0,0],"type":"VEC2"},{"bufferView":31,"componentType":5123,"count":36,"max":[23],"min":[0],"type":"SCALAR"},{"bufferView":32,"componentType":5126,"count":24,"max":[2,17.5,2],"min":[-2,-17.5,-2],"type":"VEC3"},{"bufferView":33,"componentType":5126,"count":24,"max":[1,1,1],"min":[-1,-1,-1],"type":"VEC3"},{"bufferView":34,"componentType":5126,"count":24,"max":[1,1],"min":[0,0],"type":"VEC2"},{"bufferView":35,"componentType":5123,"count":36,"max":[23],"min":[0],"type":"SCALAR"}],"materials":[{"pbrMetallicRoughness":{"baseColorFactor":[0.6274509803921569,0.6274509803921569,0.6274509803921569,1],"metallicFactor":0,"roughnessFactor":0.8}},{"pbrMetallicRoughness":{"baseColorFactor":[0.9607843137254902,0.9607843137254902,0.9411764705882353,1],"metallicFactor":0,"roughnessFactor":0.8}},{"pbrMetallicRoughness":{"baseColorFactor":[0.36470588235294116,0.3843137254901961,0.4588235294117647,1],"metallicFactor":0,"roughnessFactor":0.8}},{"pbrMetallicRoughness":{"baseColorFactor":[0.9607843137254902,0.9607843137254902,0.9411764705882353,1],"metallicFactor":0,"roughnessFactor":0.8}},{"pbrMetallicRoughness":{"baseColorFactor":[0.2901960784313726,0.3058823529411765,0.36470588235294116,1],"metallicFactor":0,"roughnessFactor":0.8}},{"pbrMetallicRoughness":{"baseColorFactor":[0.5450980392156862,0.27058823529411763,0.07450980392156863,1],"metallicFactor":0,"roughnessFactor":0.8}},{"pbrMetallicRoughness":{"metallicFactor":0,"roughnessFactor":0.8}},{"pbrMetallicRoughness":{"baseColorFactor":[0.36470588235294116,0.25098039215686274,0.21568627450980393,1],"metallicFactor":0,"roughnessFactor":0.8}},{"pbrMetallicRoughness":{"baseColorFactor":[0.36470588235294116,0.25098039215686274,0.21568627450980393,1],"metallicFactor":0,"roughnessFactor":0.8}}],"meshes":[{"primitives":[{"mode":4,"attributes":{"POSITION":0,"NORMAL":1,"TEXCOORD_0":2},"indices":3,"material":0}]},{"primitives":[{"mode":4,"attributes":{"POSITION":4,"NORMAL":5,"TEXCOORD_0":6},"indices":7,"material":1}]},{"primitives":[{"mode":4,"attributes":{"POSITION":8,"NORMAL":9,"TEXCOORD_0":10},"indices":11,"material":2}]},{"primitives":[{"mode":4,"attributes":{"POSITION":12,"NORMAL":13,"TEXCOORD_0":14},"indices":15,"material":3}]},{"primitives":[{"mode":4,"attributes":{"POSITION":16,"NORMAL":17,"TEXCOORD_0":18},"indices":19,"material":4}]},{"primitives":[{"mode":4,"attributes":{"POSITION":20,"NORMAL":21,"TEXCOORD_0":22},"indices":23,"material":5}]},{"primitives":[{"mode":4,"attributes":{"POSITION":24,"NORMAL":25,"TEXCOORD_0":26},"indices":27,"material":6}]},{"primitives":[{"mode":4,"attributes":{"POSITION":28,"NORMAL":29,"TEXCOORD_0":30},"indices":31,"material":7}]},{"primitives":[{"mode":4,"attributes":{"POSITION":32,"NORMAL":33,"TEXCOORD_0":34},"indices":35,"material":8}]}]}