{"asset":{"version":"2.0","generator":"THREE.GLTFExporter"},"scenes":[{"name":"AuxScene","nodes":[25]}],"scene":0,"nodes":[{"matrix":[1.05,0,0,0,0,1,0,0,0,0,0.92,0,0,20,0,1],"mesh":0},{"matrix":[1,0,0,0,0,1,0,0,0,0,0.86,0,0,150,0,1],"mesh":1},{"matrix":[1.05,0,0,0,0,2.220446049250313e-16,1,0,0,-1,2.220446049250313e-16,0,0,140,62,1],"mesh":2},{"matrix":[0.9918218497273495,0.08945028797639595,-0.0910388070240301,0,-0.07951545336624558,0.9910253630615619,0.10745241944535247,0,0.09983341664682817,-0.09933466539753061,0.9900332889206208,0,-88,132,10,1],"mesh":3},{"matrix":[0.9918218497273495,-0.08945028797639595,0.0910388070240301,0,0.07951545336624558,0.9910253630615619,0.10745241944535247,0,-0.09983341664682817,-0.09933466539753061,0.9900332889206208,0,88,132,10,1],"mesh":4},{"matrix":[1.3,0,0,0,0,0.75,0,0,0,0,0.9,0,-34,142,76,1],"mesh":5},{"matrix":[1,0,0,0,0,1,0,0,0,0,1,0,-34,152,78,1],"mesh":6},{"matrix":[1.3,0,0,0,0,0.75,0,0,0,0,0.9,0,34,142,76,1],"mesh":7},{"matrix":[1,0,0,0,0,1,0,0,0,0,1,0,34,152,78,1],"mesh":8},{"matrix":[1,0,0,0,0,1,0,0,0,0,1,0,-34,142,88,1],"mesh":9},{"matrix":[1,0,0,0,0,1,0,0,0,0,1,0,34,142,88,1],"mesh":10},{"matrix":[1,0,0,0,0,1,0,0,0,0,1,0,0,130,92,1],"mesh":11},{"matrix":[1,0,0,0,0,1,0,0,0,0,1,0,0,112,104,1],"mesh":12},{"matrix":[1,0,0,0,0,1,0,0,0,0,1,0,-9,104,114,1],"mesh":13},{"matrix":[1,0,0,0,0,1,0,0,0,0,1,0,9,104,114,1],"mesh":14},{"matrix":[1.1,0,0,0,0,0.9,0,0,0,0,1,0,-62,118,62,1],"mesh":15},{"matrix":[1.1,0,0,0,0,0.9,0,0,0,0,1,0,62,118,62,1],"mesh":16},{"matrix":[1,0,0,0,0,1,0,0,0,0,1,0,0,86,110,1],"mesh":17},{"matrix":[1,0,0,0,0,1,0,0,0,0,1,0,0,94,108,1],"mesh":18},{"matrix":[1,0,0,0,0,1,0,0,0,0,1,0,0,78,104,1],"mesh":19},{"matrix":[1,0,0,0,0,1,0,0,0,0,1,0,-46,86,112,1],"mesh":20},{"matrix":[1,0,0,0,0,1,0,0,0,0,1,0,46,86,112,1],"mesh":21},{"matrix":[1,0,0,0,0,1,0,0,0,0,0.95,0,0,56,56,1],"mesh":22},{"matrix":[1,0,0,0,0,1,0,0,0,0,1,0,0,20,0,1],"mesh":23},{"matrix":[1,0,0,0,0,1,0,0,0,0,1,0,0,13,0,1],"mesh":24},{"children":[0,1,2,3,4,5,6,7,8,9,10,11,12,13,14,15,16,17,18,19,20,21,22,23,24]}],"bufferViews":[{"buffer":0,"byteOffset":0,"byteLength":3132,"target":34962,"byteStride":12},{"buffer":0,"byteOffset":3132,"byteLength":2088,"target":34962,"byteStride":8},{"buffer":0,"byteOffset":5220,"byteLength":3132,"target":34962,"byteStride":12},{"buffer":0,"byteOffset":8352,"byteLength":2688,"target":34963},{"buffer":0,"byteOffset":11040,"byteLength":4140,"target":34962,"byteStride":12},{"buffer":0,"byteOffset":15180,"byteLength":4140,"target":34962,"byteStride":12},{"buffer":0,"byteOffset":19320,"byteLength":2760,"target":34962,"byteStride":8},{"buffer":0,"byteOffset":22080,"byteLength":3564,"target":34963},{"buffer":0,"byteOffset":25644,"byteLength":3564,"target":34962,"byteStride":12},{"buffer":0,"byteOffset":29208,"byteLength":3564,"target":34962,"byteStride":12},{"buffer":0,"byteOffset":32772,"byteLength":2376,"target":34962,"byteStride":8},{"buffer":0,"byteOffset":35148,"byteLength":3120,"target":34963},{"buffer":0,"byteOffset":38268,"byteLength":288,"target":34962,"byteStride":12},{"buffer":0,"byteOffset":38556,"byteLength":288,"target":34962,"byteStride":12},{"buffer":0,"byteOffset":38844,"byteLength":192,"target":34962,"byteStride":8},{"buffer":0,"byteOffset":39036,"byteLength":72,"target":34963},{"buffer":0,"byteOffset":39108,"byteLength":288,"target":34962,"byteStride":12},{"buffer":0,"byteOffset":39396,"byteLength":288,"target":34962,"byteStride":12},{"buffer":0,"byteOffset":39684,"byteLength":192,"target":34962,"byteStride":8},{"buffer":0,"byteOffset":39876,"byteLength":72,"target":34963},{"buffer":0,"byteOffset":39948,"byteLength":2340,"target":34962,"byteStride":12},{"buffer":0,"byteOffset":42288,"byteLength":2340,"target":34962,"byteStride":12},{"buffer":0,"byteOffset":44628,"byteLength":1560,"target":34962,"byteStride":8},{"buffer":0,"byteOffset":46188,"byteLength":1848,"target":34963},{"buffer":0,"byteOffset":48036,"byteLength":288,"target":34962,"byteStride":12},{"buffer":0,"byteOffset":48324,"byteLength":288,"target":34962,"byteStride":12},{"buffer":0,"byteOffset":48612,"byteLength":192,"target":34962,"byteStride":8},{"buffer":0,"byteOffset":48804,"byteLength":72,"target":34963},{"buffer":0,"byteOffset":48876,"byteLength":2340,"target":34962,"byteStride":12},{"buffer":0,"byteOffset":51216,"byteLength":2340,"target":34962,"byteStride":12},{"buffer":0,"byteOffset":53556,"byteLength":1560,"target":34962,"byteStride":8},{"buffer":0,"byteOffset":55116,"byteLength":1848,"target":34963},{"buffer":0,"byteOffset":56964,"byteLength":288,"target":34962,"byteStride":12},{"buffer":0,"byteOffset":57252,"byteLength":288,"target":34962,"byteStride":12},{"buffer":0,"byteOffset":57540,"byteLength":192,"target":34962,"byteStride":8},{"buffer":0,"byteOffset":57732,"byteLength":72,"target":34963},{"buffer":0,"byteOffset":57804,"byteLength":1716,"target":34962,"byteStride":12},{"buffer":0,"byteOffset":59520,"byteLength":1716,"target":34962,"byteStride":12},{"buffer":0,"byteOffset":61236,"byteLength":1144,"target":34962,"byteStride":8},{"buffer":0,"byteOffset":62380,"byteLength":1296,"target":34963},{"buffer":0,"byteOffset":63676,"byteLength":1716,"target":34962,"byteStride":12},{"buffer":0,"byteOffset":65392,"byteLength":1716,"target":34962,"byteStride":12},{"buffer":0,"byteOffset":67108,"byteLength":1144,"target":34962,"byteStride":8},{"buffer":0,"byteOffset":68252,"byteLength":1296,"target":34963},{"buffer":0,"byteOffset":69548,"byteLength":288,"target":34962,"byteStride":12},{"buffer":0,"byteOffset":69836,"byteLength":288,"target":34962,"byteStride":12},{"buffer":0,"byteOffset":70124,"byteLength":192,"target":34962,"byteStride":8},{"buffer":0,"byteOffset":70316,"byteLength":72,"target":34963},{"buffer":0,"byteOffset":70388,"byteLength":288,"target":34962,"byteStride":12},{"buffer":0,"byteOffset":70676,"byteLength":288,"target":34962,"byteStride":12},{"buffer":0,"byteOffset":70964,"byteLength":192,"target":34962,"byteStride":8},{"buffer":0,"byteOffset":71156,"byteLength":72,"target":34963},{"buffer":0,"byteOffset":71228,"byteLength":288,"target":34962,"byteStride":12},{"buffer":0,"byteOffset":71516,"byteLength":288,"target":34962,"byteStride":12},{"buffer":0,"byteOffset":71804,"byteLength":192,"target":34962,"byteStride":8},{"buffer":0,"byteOffset":71996,"byteLength":72,"target":34963},{"buffer":0,"byteOffset":72068,"byteLength":288,"target":34962,"byteStride":12},{"buffer":0,"byteOffset":72356,"byteLength":288,"target":34962,"byteStride":12},{"buffer":0,"byteOffset":72644,"byteLength":192,"target":34962,"byteStride":8},{"buffer":0,"byteOffset":72836,"byteLength":72,"target":34963},{"buffer":0,"byteOffset":72908,"byteLength":2340,"target":34962,"byteStride":12},{"buffer":0,"byteOffset":75248,"byteLength":2340,"target":34962,"byteStride":12},{"buffer":0,"byteOffset":77588,"byteLength":1560,"target":34962,"byteStride":8},{"buffer":0,"byteOffset":79148,"byteLength":1848,"target":34963},{"buffer":0,"byteOffset":80996,"byteLength":2340,"target":34962,"byteStride":12},{"buffer":0,"byteOffset":83336,"byteLength":2340,"target":34962,"byteStride":12},{"buffer":0,"byteOffset":85676,"byteLength":1560,"target":34962,"byteStride":8},{"buffer":0,"byteOffset":87236,"byteLength":1848,"target":34963},{"buffer":0,"byteOffset":89084,"byteLength":288,"target":34962,"byteStride":12},{"buffer":0,"byteOffset":89372,"byteLength":288,"target":34962,"byteStride":12},{"buffer":0,"byteOffset":89660,"byteLength":192,"target":34962,"byteStride":8},{"buffer":0,"byteOffset":89852,"byteLength":72,"target":34963},{"buffer":0,"byteOffset":89924,"byteLength":288,"target":34962,"byteStride":12},{"buffer":0,"byteOffset":90212,"byteLength":288,"target":34962,"byteStride":12},{"buffer":0,"byteOffset":90500,"byteLength":192,"target":34962,"byteStride":8},{"buffer":0,"byteOffset":90692,"byteLength":72,"target":34963},{"buffer":0,"byteOffset":90764,"byteLength":288,"target":34962,"byteStride":12},{"buffer":0,"byteOffset":91052,"byteLength":288,"target":34962,"byteStride":12},{"buffer":0,"byteOffset":91340,"byteLength":192,"target":34962,"byteStride":8},{"buffer":0,"byteOffset":91532,"byteLength":72,"target":34963},{"buffer":0,"byteOffset":91604,"byteLength":288,"target":34962,"byteStride":12},{"buffer":0,"byteOffset":91892,"byteLength":288,"target":34962,"byteStride":12},{"buffer":0,"byteOffset":92180,"byteLength":192,"target":34962,"byteStride":8},{"buffer":0,"byteOffset":92372,"byteLength":72,"target":34963},{"buffer":0,"byteOffset":92444,"byteLength":288,"target":34962,"byteStride":12},{"buffer":0,"byteOffset":92732,"byteLength":288,"target":34962,"byteStride":12},{"buffer":0,"byteOffset":93020,"byteLength":192,"target":34962,"byteStride":8},{"buffer":0,"byteOffset":93212,"byteLength":72,"target":34963},{"buffer":0,"byteOffset":93284,"byteLength":288,"target":34962,"byteStride":12},{"buffer":0,"byteOffset":93572,"byteLength":288,"target":34962,"byteStride":12},{"buffer":0,"byteOffset":93860,"byteLength":192,"target":34962,"byteStride":8},{"buffer":0,"byteOffset":94052,"byteLength":72,"target":34963},{"buffer":0,"byteOffset":94124,"byteLength":1344,"target":34962,"byteStride":12},{"buffer":0,"byteOffset":95468,"byteLength":1344,"target":34962,"byteStride":12},{"buffer":0,"byteOffset":96812,"byteLength":896,"target":34962,"byteStride":8},{"buffer":0,"byteOffset":97708,"byteLength":432,"target":34963},{"buffer":0,"byteOffset":98140,"byteLength":288,"target":34962,"byteStride":12},{"buffer":0,"byteOffset":98428,"byteLength":288,"target":34962,"byteStride":12},{"buffer":0,"byteOffset":98716,"byteLength":192,"target":34962,"byteStride":8},{"buffer":0,"byteOffset":98908,"byteLength":72,"target":34963}],"buffers":[{"byteLength":98980,"uri":"data:application/octet-stream;base64,"}],"accessors":[{"bufferView":0,"componentType":5126,"count":261,"max":[102,214,102],"min":[-102,0,-102],"type":"VEC3"},{"bufferView":1,"componentType":5126,"count":261,"max":[1,1],"min":[0,0],"type":"VEC2"},{"bufferView":2,"componentType":5126,"count":261,"max":[1,0.9782862663269043,0.9932401180267334],"min":[-0.9996818900108337,-0.9882266521453857,-0.9996818900108337],"type":"VEC3"},{"bufferView":3,"componentType":5123,"count":1344,"max":[260],"min":[0],"type":"SCALAR"},{"bufferView":4,"componentType":5126,"count":345,"max":[107.91191101074219,108,106.81352233886719],"min":[-107.91191101074219,-39.757450103759766,-106.81352233886719],"type":"VEC3"},{"bufferView":5,"componentType":5126,"count":345,"max":[0.9991843700408936,1,0.9890140891075134],"min":[-0.9991843700408936,-0.3681245446205139,-0.9890140891075134],"type":"VEC3"},{"bufferView":6,"componentType":5126,"count":345,"max":[1.0227272510528564,1],"min":[0,0],"type":"VEC2"},{"bufferView":7,"componentType":5123,"count":1782,"max":[344],"min":[0],"type":"SCALAR"},{"bufferView":8,"componentType":5126,"count":297,"max":[85,84.38025665283203,6.657395839691162],"min":[-85,-84.38025665283203,-6.657395839691162],"type":"VEC3"},{"bufferView":9,"componentType":5126,"count":297,"max":[1,0.9927088618278503,0.9510565400123596],"min":[-1,-0.9927088618278503,-0.9510565400123596],"type":"VEC3"},{"bufferView":10,"componentType":5126,"count":297,"max":[1,1],"min":[0,0],"type":"VEC2"},{"bufferView":11,"componentType":5123,"count":1560,"max":[296],"min":[0],"type":"SCALAR"},{"bufferView":12,"componentType":5126,"count":24,"max":[17,22,13],"min":[-17,-22,-13],"type":"VEC3"},{"bufferView":13,"componentType":5126,"count":24,"max":[1,1,1],"min":[-1,-1,-1],"type":"VEC3"},{"bufferView":14,"componentType":5126,"count":24,"max":[1,1],"min":[0,0],"type":"VEC2"},{"bufferView":15,"componentType":5123,"count":36,"max":[23],"min":[0],"type":"SCALAR"},{"bufferView":16,"componentType":5126,"count":24,"max":[17,22,13],"min":[-17,-22,-13],"type":"VEC3"},{"bufferView":17,"componentType":5126,"count":24,"max":[1,1,1],"min":[-1,-1,-1],"type":"VEC3"},{"bufferView":18,"componentType":5126,"count":24,"max":[1,1],"min":[0,0],"type":"VEC2"},{"bufferView":19,"componentType":5123,"count":36,"max":[23],"min":[0],"type":"SCALAR"},{"bufferView":20,"componentType":5126,"count":195,"max":[18,18,17.548702239990234],"min":[-18,-18,-17.548702239990234],"type":"VEC3"},{"bufferView":21,"componentType":5126,"count":195,"max":[1,1,0.9749279022216797],"min":[-1,-1,-0.9749279022216797],"type":"VEC3"},{"bufferView":22,"componentType":5126,"count":195,"max":[1.0357142686843872,1],"min":[-0.0357142873108387,0],"type":"VEC2"},{"bufferView":23,"componentType":5123,"count":924,"max":[194],"min":[0],"type":"SCALAR"},{"bufferView":24,"componentType":5126,"count":24,"max":[17,4,5],"min":[-17,-4,-5],"type":"VEC3"},{"bufferView":25,"componentType":5126,"count":24,"max":[1,1,1],"min":[-1,-1,-1],"type":"VEC3"},{"bufferView":26,"componentType":5126,"count":24,"max":[1,1],"min":[0,0],"type":"VEC2"},{"bufferView":27,"componentType":5123,"count":36,"max":[23],"min":[0],"type":"SCALAR"},{"bufferView":28,"componentType":5126,"count":195,"max":[18,18,17.548702239990234],"min":[-18,-18,-17.548702239990234],"type":"VEC3"},{"bufferView":29,"componentType":5126,"count":195,"max":[1,1,0.9749279022216797],"min":[-1,-1,-0.9749279022216797],"type":"VEC3"},{"bufferView":30,"componentType":5126,"count":195,"max":[1.0357142686843872,1],"min":[-0.0357142873108387,0],"type":"VEC2"},{"bufferView":31,"componentType":5123,"count":924,"max":[194],"min":[0],"type":"SCALAR"},{"bufferView":32,"componentType":5126,"count":24,"max":[17,4,5],"min":[-17,-4,-5],"type":"VEC3"},{"bufferView":33,"componentType":5126,"count":24,"max":[1,1,1],"min":[-1,-1,-1],"type":"VEC3"},{"bufferView":34,"componentType":5126,"count":24,"max":[1,1],"min":[0,0],"type":"VEC2"},{"bufferView":35,"componentType":5123,"count":36,"max":[23],"min":[0],"type":"SCALAR"},{"bufferView":36,"componentType":5126,"count":143,"max":[6,6,6],"min":[-6,-6,-6],"type":"VEC3"},{"bufferView":37,"componentType":5126,"count":143,"max":[1,1,1],"min":[-1,-1,-1],"type":"VEC3"},{"bufferView":38,"componentType":5126,"count":143,"max":[1.0416666269302368,1],"min":[-0.0416666679084301,0],"type":"VEC2"},{"bufferView":39,"componentType":5123,"count":648,"max":[142],"min":[0],"type":"SCALAR"},{"bufferView":40,"componentType":5126,"count":143,"max":[6,6,6],"min":[-6,-6,-6],"type":"VEC3"},{"bufferView":41,"componentType":5126,"count":143,"max":[1,1,1],"min":[-1,-1,-1],"type":"VEC3"},{"bufferView":42,"componentType":5126,"count":143,"max":[1.0416666269302368,1],"min":[-0.0416666679084301,0],"type":"VEC2"},{"bufferView":43,"componentType":5123,"count":648,"max":[142],"min":[0],"type":"SCALAR"},{"bufferView":44,"componentType":5126,"count":24,"max":[11,23,10],"min":[-11,-23,-10],"type":"VEC3"},{"bufferView":45,"componentType":5126,"count":24,"max":[1,1,1],"min":[-1,-1,-1],"type":"VEC3"},{"bufferView":46,"componentType":5126,"count":24,"max":[1,1],"min":[0,0],"type":"VEC2"},{"bufferView":47,"componentType":5123,"count":36,"max":[23],"min":[0],"type":"SCALAR"},{"bufferView":48,"componentType":5126,"count":24,"max":[15,9,13],"min":[-15,-9,-13],"type":"VEC3"},{"bufferView":49,"componentType":5126,"count":24,"max":[1,1,1],"min":[-1,-1,-1],"type":"VEC3"},{"bufferView":50,"componentType":5126,"count":24,"max":[1,1],"min":[0,0],"type":"VEC2"},{"bufferView":51,"componentType":5123,"count":36,"max":[23],"min":[0],"type":"SCALAR"},{"bufferView":52,"componentType":5126,"count":24,"max":[5,4,5],"min":[-5,-4,-5],"type":"VEC3"},{"bufferView":53,"componentType":5126,"count":24,"max":[1,1,1],"min":[-1,-1,-1],"type":"VEC3"},{"bufferView":54,"componentType":5126,"count":24,"max":[1,1],"min":[0,0],"type":"VEC2"},{"bufferView":55,"componentType":5123,"count":36,"max":[23],"min":[0],"type":"SCALAR"},{"bufferView":56,"componentType":5126,"count":24,"max":[5,4,5],"min":[-5,-4,-5],"type":"VEC3"},{"bufferView":57,"componentType":5126,"count":24,"max":[1,1,1],"min":[-1,-1,-1],"type":"VEC3"},{"bufferView":58,"componentType":5126,"count":24,"max":[1,1],"min":[0,0],"type":"VEC2"},{"bufferView":59,"componentType":5123,"count":36,"max":[23],"min":[0],"type":"SCALAR"},{"bufferView":60,"componentType":5126,"count":195,"max":[26,26,25.348125457763672],"min":[-26,-26,-25.348125457763672],"type":"VEC3"},{"bufferView":61,"componentType":5126,"count":195,"max":[1,1,0.9749279022216797],"min":[-1,-1,-0.9749279022216797],"type":"VEC3"},{"bufferView":62,"componentType":5126,"count":195,"max":[1.0357142686843872,1],"min":[-0.0357142873108387,0],"type":"VEC2"},{"bufferView":63,"componentType":5123,"count":924,"max":[194],"min":[0],"type":"SCALAR"},{"bufferView":64,"componentType":5126,"count":195,"max":[26,26,25.348125457763672],"min":[-26,-26,-25.348125457763672],"type":"VEC3"},{"bufferView":65,"componentType":5126,"count":195,"max":[1,1,0.9749279022216797],"min":[-1,-1,-0.9749279022216797],"type":"VEC3"},{"bufferView":66,"componentType":5126,"count":195,"max":[1.0357142686843872,1],"min":[-0.0357142873108387,0],"type":"VEC2"},{"bufferView":67,"componentType":5123,"count":924,"max":[194],"min":[0],"type":"SCALAR"},{"bufferView":68,"componentType":5126,"count":24,"max":[37,8,6],"min":[-37,-8,-6],"type":"VEC3"},{"bufferView":69,"componentType":5126,"count":24,"max":[1,1,1],"min":[-1,-1,-1],"type":"VEC3"},{"bufferView":70,"componentType":5126,"count":24,"max":[1,1],"min":[0,0],"type":"VEC2"},{"bufferView":71,"componentType":5123,"count":36,"max":[23],"min":[0],"type":"SCALAR"},{"bufferView":72,"componentType":5126,"count":24,"max":[39,6,8],"min":[-39,-6,-8],"type":"VEC3"},{"bufferView":73,"componentType":5126,"count":24,"max":[1,1,1],"min":[-1,-1,-1],"type":"VEC3"},{"bufferView":74,"componentType":5126,"count":24,"max":[1,1],"min":[0,0],"type":"VEC2"},{"bufferView":75,"componentType":5123,"count":36,"max":[23],"min":[0],"type":"SCALAR"},{"bufferView":76,"componentType":5126,"count":24,"max":[42,8,9],"min":[-42,-8,-9],"type":"VEC3"},{"bufferView":77,"componentType":5126,"count":24,"max":[1,1,1],"min":[-1,-1,-1],"type":"VEC3"},{"bufferView":78,"componentType":5126,"count":24,"max":[1,1],"min":[0,0],"type":"VEC2"},{"bufferView":79,"componentType":5123,"count":36,"max":[23],"min":[0],"type":"SCALAR"},{"bufferView":80,"componentType":5126,"count":24,"max":[7,5,6],"min":[-7,-5,-6],"type":"VEC3"},{"bufferView":81,"componentType":5126,"count":24,"max":[1,1,1],"min":[-1,-1,-1],"type":"VEC3"},{"bufferView":82,"componentType":5126,"count":24,"max":[1,1],"min":[0,0],"type":"VEC2"},{"bufferView":83,"componentType":5123,"count":36,"max":[23],"min":[0],"type":"SCALAR"},{"bufferView":84,"componentType":5126,"count":24,"max":[7,5,6],"min":[-7,-5,-6],"type":"VEC3"},{"bufferView":85,"componentType":5126,"count":24,"max":[1,1,1],"min":[-1,-1,-1],"type":"VEC3"},{"bufferView":86,"componentType":5126,"count":24,"max":[1,1],"min":[0,0],"type":"VEC2"},{"bufferView":87,"componentType":5123,"count":36,"max":[23],"min":[0],"type":"SCALAR"},{"bufferView":88,"componentType":5126,"count":24,"max":[43,20,28],"min":[-43,-20,-28],"type":"VEC3"},{"bufferView":89,"componentType":5126,"count":24,"max":[1,1,1],"min":[-1,-1,-1],"type":"VEC3"},{"bufferView":90,"componentType":5126,"count":24,"max":[1,1],"min":[0,0],"type":"VEC2"},{"bufferView":91,"componentType":5123,"count":36,"max":[23],"min":[0],"type":"SCALAR"},{"bufferView":92,"componentType":5126,"count":112,"max":[90.60231018066406,15,92],"min":[-90.60231018066406,-15,-92],"type":"VEC3"},{"bufferView":93,"componentType":5126,"count":112,"max":[0.8924161791801453,1,0.906183123588562],"min":[-0.8924161791801453,-1,-0.906183123588562],"type":"VEC3"},{"bufferView":94,"componentType":5126,"count":112,"max":[1,1],"min":[0,0],"type":"VEC2"},{"bufferView":95,"componentType":5123,"count":216,"max":[111],"min":[0],"type":"SCALAR"},{"bufferView":96,"componentType":5126,"count":24,"max":[130,13,105],"min":[-130,-13,-105],"type":"VEC3"},{"bufferView":97,"componentType":5126,"count":24,"max":[1,1,1],"min":[-1,-1,-1],"type":"VEC3"},{"bufferView":98,"componentType":5126,"count":24,"max":[1,1],"min":[0,0],"type":"VEC2"},{"bufferView":99,"componentType":5123,"count":36,"max":[23],"min":[0],"type":"SCALAR"}],"materials":[{"pbrMetallicRoughness":{"baseColorFactor":[0.611764705882353,0.6392156862745098,0.6862745098039216,1],"metallicFactor":0.02,"roughnessFactor":0.96}},{"pbrMetallicRoughness":{"baseColorFactor":[0.4196078431372549,0.4470588235294118,0.5019607843137255,1],"metallicFactor":0.02,"roughnessFactor":0.98}},{"pbrMetallicRoughness":{"baseColorFactor":[0.06666666666666667,0.09411764705882353,0.15294117647058825,0.14],"metallicFactor":0,"roughnessFactor":0.95},"alphaMode":"BLEND"}],"meshes":[{"primitives":[{"mode":4,"attributes":{"POSITION":0,"TEXCOORD_0":1,"NORMAL":2},"indices":3,"material":0}]},{"primitives":[{"mode":4,"attributes":{"POSITION":4,"NORMAL":5,"TEXCOORD_0":6},"indices":7,"material":1}]},{"primitives":[{"mode":4,"attributes":{"POSITION":8,"NORMAL":9,"TEXCOORD_0":10},"indices":11,"material":1}]},{"primitives":[{"mode":4,"attributes":{"POSITION":12,"NORMAL":13,"TEXCOORD_0":14},"indices":15,"material":1}]},{"primitives":[{"mode":4,"attributes":{"POSITION":16,"NORMAL":17,"TEXCOORD_0":18},"indices":19,"material":1}]},{"primitives":[{"mode":4,"attributes":{"POSITION":20,"NORMAL":21,"TEXCOORD_0":22},"indices":23,"material":2}]},{"primitives":[{"mode":4,"attributes":{"POSITION":24,"NORMAL":25,"TEXCOORD_0":26},"indices":27,"material":1}]},{"primitives":[{"mode":4,"attributes":{"POSITION":28,"NORMAL":29,"TEXCOORD_0":30},"indices":31,"material":2}]},{"primitives":[{"mode":4,"attributes":{"POSITION":32,"NORMAL":33,"TEXCOORD_0":34},"indices":35,"material":1}]},{"primitives":[{"mode":4,"attributes":{"POSITION":36,"NORMAL":37,"TEXCOORD_0":38},"indices":39,"material":0}]},{"primitives":[{"mode":4,"attributes":{"POSITION":40,"NORMAL":41,"TEXCOORD_0":42},"indices":43,"material":0}]},{"primitives":[{"mode":4,"attributes":{"POSITION":44,"NORMAL":45,"TEXCOORD_0":46},"indices":47,"material":1}]},{"primitives":[{"mode":4,"attributes":{"POSITION":48,"NORMAL":49,"TEXCOORD_0":50},"indices":51,"material":1}]},{"primitives":[{"mode":4,"attributes":{"POSITION":52,"NORMAL":53,"TEXCOORD_0":54},"indices":55,"material":2}]},{"primitives":[{"mode":4,"attributes":{"POSITION":56,"NORMAL":57,"TEXCOORD_0":58},"indices":59,"material":2}]},{"primitives":[{"mode":4,"attributes":{"POSITION":60,"NORMAL":61,"TEXCOORD_0":62},"indices":63,"material":0}]},{"primitives":[{"mode":4,"attributes":{"POSITION":64,"NORMAL":65,"TEXCOORD_0":66},"indices":67,"material":0}]},{"primitives":[{"mode":4,"attributes":{"POSITION":68,"NORMAL":69,"TEXCOORD_0":70},"indices":71,"material":2}]},{"primitives":[{"mode":4,"attributes":{"POSITION":72,"NORMAL":73,"TEXCOORD_0":74},"indices":75,"material":1}]},{"primitives":[{"mode":4,"attributes":{"POSITION":76,"NORMAL":77,"TEXCOORD_0":78},"indices":79,"material":1}]},{"primitives":[{"mode":4,"attributes":{"POSITION":80,"NORMAL":81,"TEXCOORD_0":82},"indices":83,"material":2}]},{"primitives":[{"mode":4,"attributes":{"POSITION":84,"NORMAL":85,"TEXCOORD_0":86},"indices":87,"material":2}]},{"primitives":[{"mode":4,"attributes":{"POSITION":88,"NORMAL":89,"TEXCOORD_0":90},"indices":91,"material":0}]},{"primitives":[{"mode":4,"attributes":{"POSITION":92,"NORMAL":93,"TEXCOORD_0":94},"indices":95,"material":1}]},{"primitives":[{"mode":4,"attributes":{"POSITION":96,"NORMAL":97,"TEXCOORD_0":98},"indices":99,"material":1}]}]}