{"asset":{"version":"2.0","generator":"THREE.GLTFExporter"},"scenes":[{"name":"AuxScene","nodes":[6]}],"scene":0,"nodes":[{"matrix":[1,0,0,0,0,1,0,0,0,0,1,0,0,10,0,1],"mesh":0},{"matrix":[1,0,0,0,0,1,0,0,0,0,1,0,0,90,0,1],"mesh":1},{"matrix":[1,0,0,0,0,1,0,0,0,0,1,0,0,300,0,1],"mesh":2},{"matrix":[0.9296020813143975,0.16865375634090968,-0.32771310759266475,0,-0.15905935125175513,0.9856753575453234,0.05607327623092592,0,0.33247570316537595,-3.469446951953614e-18,0.9431118209442022,0,-120,144.09849314312117,80,1],"mesh":3},{"matrix":[0.926699221113981,0.17213238562447122,-0.33406435817963187,0,-0.16193197255516065,0.9850738255680274,0.05837460445404637,0,0.33912621522249753,3.469446951953614e-18,0.9407408836384566,0,120,176.60300056216644,-80,1],"mesh":4},{"matrix":[0.9516007561887898,0.13961824204164341,-0.2737932565095872,0,-0.13417501446794372,0.9902054062108533,0.038604650022063584,0,0.2765014761505815,0,0.9610134929784021,0,0,362.41899653897985,0,1],"mesh":5},{"children":[0,1,2,3,4,5]}],"bufferViews":[{"buffer":0,"byteOffset":0,"byteLength":624,"target":34962,"byteStride":12},{"buffer":0,"byteOffset":624,"byteLength":624,"target":34962,"byteStride":12},{"buffer":0,"byteOffset":1248,"byteLength":416,"target":34962,"byteStride":8},{"buffer":0,"byteOffset":1664,"byteLength":192,"target":34963},{"buffer":0,"byteOffset":1856,"byteLength":2352,"target":34962,"byteStride":12},{"buffer":0,"byteOffset":4208,"byteLength":2352,"target":34962,"byteStride":12},{"buffer":0,"byteOffset":6560,"byteLength":1568,"target":34962,"byteStride":8},{"buffer":0,"byteOffset":8128,"byteLength":768,"target":34963},{"buffer":0,"byteOffset":8896,"byteLength":1572,"target":34962,"byteStride":12},{"buffer":0,"byteOffset":10468,"byteLength":1572,"target":34962,"byteStride":12},{"buffer":0,"byteOffset":12040,"byteLength":1048,"target":34962,"byteStride":8},{"buffer":0,"byteOffset":13088,"byteLength":576,"target":34963},{"buffer":0,"byteOffset":13664,"byteLength":480,"target":34962,"byteStride":12},{"buffer":0,"byteOffset":14144,"byteLength":480,"target":34962,"byteStride":12},{"buffer":0,"byteOffset":14624,"byteLength":320,"target":34962,"byteStride":8},{"buffer":0,"byteOffset":14944,"byteLength":144,"target":34963},{"buffer":0,"byteOffset":15088,"byteLength":480,"target":34962,"byteStride":12},{"buffer":0,"byteOffset":15568,"byteLength":480,"target":34962,"byteStride":12},{"buffer":0,"byteOffset":16048,"byteLength":320,"target":34962,"byteStride":8},{"buffer":0,"byteOffset":16368,"byteLength":144,"target":34963},{"buffer":0,"byteOffset":16512,"byteLength":480,"target":34962,"byteStride":12},{"buffer":0,"byteOffset":16992,"byteLength":480,"target":34962,"byteStride":12},{"buffer":0,"byteOffset":17472,"byteLength":320,"target":34962,"byteStride":8},{"buffer":0,"byteOffset":17792,"byteLength":144,"target":34963}],"buffers":[{"byteLength":17936,"uri":"data:application/octet-stream;base64,"}],"accessors":[{"bufferView":0,"componentType":5126,"count":52,"max":[90,10,90],"min":[-90,-10,-90],"type":"VEC3"},{"bufferView":1,"componentType":5126,"count":52,"max":[1,1,1],"min":[-1,-1,-1],"type":"VEC3"},{"bufferView":2,"componentType":5126,"count":52,"max":[1,1],"min":[0,0],"type":"VEC2"},{"bufferView":3,"componentType":5123,"count":96,"max":[51],"min":[0],"type":"SCALAR"},{"bufferView":4,"componentType":5126,"count":196,"max":[28,80,28],"min":[-28,-80,-28],"type":"VEC3"},{"bufferView":5,"componentType":5126,"count":196,"max":[1,1,1],"min":[-1,-1,-1],"type":"VEC3"},{"bufferView":6,"componentType":5126,"count":196,"max":[1,1],"min":[0,0],"type":"VEC2"},{"bufferView":7,"componentType":5123,"count":384,"max":[195],"min":[0],"type":"SCALAR"},{"bufferView":8,"componentType":5126,"count":131,"max":[40,130,40],"min":[-40,-130,-40],"type":"VEC3"},{"bufferView":9,"componentType":5126,"count":131,"max":[0.9883716702461243,0.15205718576908112,0.9883716702461243],"min":[-0.9883716702461243,-1,-0.9883716702461243],"type":"VEC3"},{"bufferView":10,"componentType":5126,"count":131,"max":[1,1],"min":[0,0],"type":"VEC2"},{"bufferView":11,"componentType":5123,"count":288,"max":[130],"min":[0],"type":"SCALAR"},{"bufferView":12,"componentType":5126,"count":40,"max":[12.990381240844727,30,15],"min":[-12.990381240844727,-30,-15],"type":"VEC3"},{"bufferView":13,"componentType":5126,"count":40,"max":[0.8660253882408142,1,1],"min":[-0.8660253882408142,-1,-1],"type":"VEC3"},{"bufferView":14,"componentType":5126,"count":40,"max":[1,1],"min":[0,0],"type":"VEC2"},{"bufferView":15,"componentType":5123,"count":72,"max":[39],"min":[0],"type":"SCALAR"},{"bufferView":16,"componentType":5126,"count":40,"max":[12.990381240844727,30,15],"min":[-12.990381240844727,-30,-15],"type":"VEC3"},{"bufferView":17,"componentType":5126,"count":40,"max":[0.8660253882408142,1,1],"min":[-0.8660253882408142,-1,-1],"type":"VEC3"},{"bufferView":18,"componentType":5126,"count":40,"max":[1,1],"min":[0,0],"type":"VEC2"},{"bufferView":19,"componentType":5123,"count":72,"max":[39],"min":[0],"type":"SCALAR"},{"bufferView":20,"componentType":5126,"count":40,"max":[8.66025447845459,40,10],"min":[-8.66025447845459,-40,-10],"type":"VEC3"},{"bufferView":21,"componentType":5126,"count":40,"max":[0.8660253882408142,1,1],"min":[-0.8660253882408142,-1,-1],"type":"VEC3"},{"bufferView":22,"componentType":5126,"count":40,"max":[1,1],"min":[0,0],"type":"VEC2"},{"bufferView":23,"componentType":5123,"count":72,"max":[39],"min":[0],"type":"SCALAR"}],"materials":[{"pbrMetallicRoughness":{"baseColorFactor":[0.2823529411764706,0.23921568627450981,0.5450980392156862,0.8],"metallicFactor":0.5,"roughnessFactor":0.5},"alphaMode":"BLEND"},{"pbrMetallicRoughness":{"baseColorFactor":[0.41568627450980394,0.35294117647058826,0.803921568627451,0.9],"metallicFactor":0.5,"roughnessFactor":0.5},"alphaMode":"BLEND"},{"pbrMetallicRoughness":{"baseColorFactor":[0.5764705882352941,0.4392156862745098,0.8588235294117647,0.7],"metallicFactor":0.5,"roughnessFactor":0.5},"alphaMode":"BLEND"},{"pbrMetallicRoughness":{"baseColorFactor":[0,1,1,0.8],"metallicFactor":0.5,"roughnessFactor":0.5},"emissiveFactor":[0,0.6,0.6],"alphaMode":"BLEND"},{"pbrMetallicRoughness":{"baseColorFactor":[0,1,1,0.8],"metallicFactor":0.5,"roughnessFactor":0.5},"emissiveFactor":[0,0.6,0.6],"alphaMode":"BLEND"},{"pbrMetallicRoughness":{"baseColorFactor":[0.8784313725490196,1,1,0.9],"metallicFactor":0.5,"roughnessFactor":0.5},"emissiveFactor":[0.5270588235294117,0.6,0.6],"alphaMode":"BLEND"}],"meshes":[{"primitives":[{"mode":4,"attributes":{"POSITION":0,"NORMAL":1,"TEXCOORD_0":2},"indices":3,"material":0}]},{"primitives":[{"mode":4,"attributes":{"POSITION":4,"NORMAL":5,"TEXCOORD_0":6},"indices":7,"material":1}]},{"primitives":[{"mode":4,"attributes":{"POSITION":8,"NORMAL":9,"TEXCOORD_0":10},"indices":11,"material":2}]},{"primitives":[{"mode":4,"attributes":{"POSITION":12,"NORMAL":13,"TEXCOORD_0":14},"indices":15,"material":3}]},{"primitives":[{"mode":4,"attributes":{"POSITION":16,"NORMAL":17,"TEXCOORD_0":18},"indices":19,"material":4}]},{"primitives":[{"mode":4,"attributes":{"POSITION":20,"NORMAL":21,"TEXCOORD_0":22},"indices":23,"material":5}]}]}