{"asset":{"version":"2.0","generator":"THREE.GLTFExporter"},"scenes":[{"name":"AuxScene","nodes":[8]}],"scene":0,"nodes":[{"matrix":[1,0,0,0,0,1,0,0,0,0,1,0,0,24,0,1],"mesh":0},{"matrix":[1,0,0,0,0,1,0,0,0,0,1,0,0,19,0,1],"mesh":1},{"matrix":[1,0,0,0,0,1,0,0,0,0,1,0,0,14,0,1],"mesh":2},{"matrix":[1,0,0,0,0,1,0,0,0,0,1,0,0,5,0,1],"mesh":3},{"matrix":[1,0,0,0,0,1,0,0,0,0,1,0,190,null,0,1],"mesh":4},{"matrix":[1,0,0,0,0,1,0,0,0,0,1,0,-190,null,0,1],"mesh":5},{"matrix":[2.220446049250313e-16,0,-1,0,0,1,0,0,1,0,2.220446049250313e-16,0,0,null,160,1],"mesh":6},{"matrix":[2.220446049250313e-16,0,-1,0,0,1,0,0,1,0,2.220446049250313e-16,0,0,null,-160,1],"mesh":7},{"matrix":[1,0,0,0,0,1,0,0,0,0,0.85,0,0,0,0,1],"children":[0,1,2,3,4,5,6,7]}],"bufferViews":[{"buffer":0,"byteOffset":0,"byteLength":1776,"target":34962,"byteStride":12},{"buffer":0,"byteOffset":1776,"byteLength":1776,"target":34962,"byteStride":12},{"buffer":0,"byteOffset":3552,"byteLength":1184,"target":34962,"byteStride":8},{"buffer":0,"byteOffset":4736,"byteLength":576,"target":34963},{"buffer":0,"byteOffset":5312,"byteLength":1776,"target":34962,"byteStride":12},{"buffer":0,"byteOffset":7088,"byteLength":1776,"target":34962,"byteStride":12},{"buffer":0,"byteOffset":8864,"byteLength":1184,"target":34962,"byteStride":8},{"buffer":0,"byteOffset":10048,"byteLength":576,"target":34963},{"buffer":0,"byteOffset":10624,"byteLength":1776,"target":34962,"byteStride":12},{"buffer":0,"byteOffset":12400,"byteLength":1776,"target":34962,"byteStride":12},{"buffer":0,"byteOffset":14176,"byteLength":1184,"target":34962,"byteStride":8},{"buffer":0,"byteOffset":15360,"byteLength":576,"target":34963},{"buffer":0,"byteOffset":15936,"byteLength":1776,"target":34962,"byteStride":12},{"buffer":0,"byteOffset":17712,"byteLength":1776,"target":34962,"byteStride":12},{"buffer":0,"byteOffset":19488,"byteLength":1184,"target":34962,"byteStride":8},{"buffer":0,"byteOffset":20672,"byteLength":576,"target":34963},{"buffer":0,"byteOffset":21248,"byteLength":288,"target":34962,"byteStride":12},{"buffer":0,"byteOffset":21536,"byteLength":288,"target":34962,"byteStride":12},{"buffer":0,"byteOffset":21824,"byteLength":192,"target":34962,"byteStride":8},{"buffer":0,"byteOffset":22016,"byteLength":72,"target":34963},{"buffer":0,"byteOffset":22088,"byteLength":288,"target":34962,"byteStride":12},{"buffer":0,"byteOffset":22376,"byteLength":288,"target":34962,"byteStride":12},{"buffer":0,"byteOffset":22664,"byteLength":192,"target":34962,"byteStride":8},{"buffer":0,"byteOffset":22856,"byteLength":72,"target":34963},{"buffer":0,"byteOffset":22928,"byteLength":288,"target":34962,"byteStride":12},{"buffer":0,"byteOffset":23216,"byteLength":288,"target":34962,"byteStride":12},{"buffer":0,"byteOffset":23504,"byteLength":192,"target":34962,"byteStride":8},{"buffer":0,"byteOffset":23696,"byteLength":72,"target":34963},{"buffer":0,"byteOffset":23768,"byteLength":288,"target":34962,"byteStride":12},{"buffer":0,"byteOffset":24056,"byteLength":288,"target":34962,"byteStride":12},{"buffer":0,"byteOffset":24344,"byteLength":192,"target":34962,"byteStride":8},{"buffer":0,"byteOffset":24536,"byteLength":72,"target":34963}],"buffers":[{"byteLength":24608,"uri":"data:application/octet-stream;base64,"}],"accessors":[{"bufferView":0,"componentType":5126,"count":148,"max":[180,24,180],"min":[-180,-24,-180],"type":"VEC3"},{"bufferView":1,"componentType":5126,"count":148,"max":[1,1,1],"min":[-1,-1,-1],"type":"VEC3"},{"bufferView":2,"componentType":5126,"count":148,"max":[1,1],"min":[0,0],"type":"VEC2"},{"bufferView":3,"componentType":5123,"count":288,"max":[147],"min":[0],"type":"SCALAR"},{"bufferView":4,"componentType":5126,"count":148,"max":[170,19,170],"min":[-170,-19,-170],"type":"VEC3"},{"bufferView":5,"componentType":5126,"count":148,"max":[1,1,1],"min":[-1,-1,-1],"type":"VEC3"},{"bufferView":6,"componentType":5126,"count":148,"max":[1,1],"min":[0,0],"type":"VEC2"},{"bufferView":7,"componentType":5123,"count":288,"max":[147],"min":[0],"type":"SCALAR"},{"bufferView":8,"componentType":5126,"count":148,"max":[160,14,160],"min":[-160,-14,-160],"type":"VEC3"},{"bufferView":9,"componentType":5126,"count":148,"max":[1,1,1],"min":[-1,-1,-1],"type":"VEC3"},{"bufferView":10,"componentType":5126,"count":148,"max":[1,1],"min":[0,0],"type":"VEC2"},{"bufferView":11,"componentType":5123,"count":288,"max":[147],"min":[0],"type":"SCALAR"},{"bufferView":12,"componentType":5126,"count":148,"max":[150,5,150],"min":[-150,-5,-150],"type":"VEC3"},{"bufferView":13,"componentType":5126,"count":148,"max":[1,1,1],"min":[-1,-1,-1],"type":"VEC3"},{"bufferView":14,"componentType":5126,"count":148,"max":[1,1],"min":[0,0],"type":"VEC2"},{"bufferView":15,"componentType":5123,"count":288,"max":[147],"min":[0],"type":"SCALAR"},{"bufferView":16,"componentType":5126,"count":24,"max":[20,0.5,40],"min":[-20,-0.5,-40],"type":"VEC3"},{"bufferView":17,"componentType":5126,"count":24,"max":[1,1,1],"min":[-1,-1,-1],"type":"VEC3"},{"bufferView":18,"componentType":5126,"count":24,"max":[1,1],"min":[0,0],"type":"VEC2"},{"bufferView":19,"componentType":5123,"count":36,"max":[23],"min":[0],"type":"SCALAR"},{"bufferView":20,"componentType":5126,"count":24,"max":[20,0.5,40],"min":[-20,-0.5,-40],"type":"VEC3"},{"bufferView":21,"componentType":5126,"count":24,"max":[1,1,1],"min":[-1,-1,-1],"type":"VEC3"},{"bufferView":22,"componentType":5126,"count":24,"max":[1,1],"min":[0,0],"type":"VEC2"},{"bufferView":23,"componentType":5123,"count":36,"max":[23],"min":[0],"type":"SCALAR"},{"bufferView":24,"componentType":5126,"count":24,"max":[20,0.5,40],"min":[-20,-0.5,-40],"type":"VEC3"},{"bufferView":25,"componentType":5126,"count":24,"max":[1,1,1],"min":[-1,-1,-1],"type":"VEC3"},{"bufferView":26,"componentType":5126,"count":24,"max":[1,1],"min":[0,0],"type":"VEC2"},{"bufferView":27,"componentType":5123,"count":36,"max":[23],"min":[0],"type":"SCALAR"},{"bufferView":28,"componentType":5126,"count":24,"max":[20,0.5,40],"min":[-20,-0.5,-40],"type":"VEC3"},{"bufferView":29,"componentType":5126,"count":24,"max":[1,1,1],"min":[-1,-1,-1],"type":"VEC3"},{"bufferView":30,"componentType":5126,"count":24,"max":[1,1],"min":[0,0],"type":"VEC2"},{"bufferView":31,"componentType":5123,"count":36,"max":[23],"min":[0],"type":"SCALAR"}],"materials":[{"pbrMetallicRoughness":{"baseColorFactor":[0.8235294117647058,0.7058823529411765,0.5490196078431373,1],"metallicFactor":0.1,"roughnessFactor":0.9}},{"pbrMetallicRoughness":{"baseColorFactor":[0.7725490196078432,0.6274509803921569,0.4392156862745098,1],"metallicFactor":0.1,"roughnessFactor":0.9}},{"pbrMetallicRoughness":{"baseColorFactor":[0.7215686274509804,0.5882352941176471,0.3764705882352941,1],"metallicFactor":0.1,"roughnessFactor":0.9}},{"pbrMetallicRoughness":{"baseColorFactor":[0.8901960784313725,0.8313725490196079,0.7137254901960784,1],"metallicFactor":0.1,"roughnessFactor":0.9}},{"pbrMetallicRoughness":{"baseColorFactor":[0.5450980392156862,0.45098039215686275,0.3333333333333333,1],"metallicFactor":0.1,"roughnessFactor":0.9}},{"pbrMetallicRoughness":{"baseColorFactor":[0.5450980392156862,0.45098039215686275,0.3333333333333333,1],"metallicFactor":0.1,"roughnessFactor":0.9}},{"pbrMetallicRoughness":{"baseColorFactor":[0.5450980392156862,0.45098039215686275,0.3333333333333333,1],"metallicFactor":0.1,"roughnessFactor":0.9}},{"pbrMetallicRoughness":{"baseColorFactor":[0.5450980392156862,0.45098039215686275,0.3333333333333333,1],"metallicFactor":0.1,"roughnessFactor":0.9}}],"meshes":[{"primitives":[{"mode":4,"attributes":{"POSITION":0,"NORMAL":1,"TEXCOORD_0":2},"indices":3,"material":0}]},{"primitives":[{"mode":4,"attributes":{"POSITION":4,"NORMAL":5,"TEXCOORD_0":6},"indices":7,"material":1}]},{"primitives":[{"mode":4,"attributes":{"POSITION":8,"NORMAL":9,"TEXCOORD_0":10},"indices":11,"material":2}]},{"primitives":[{"mode":4,"attributes":{"POSITION":12,"NORMAL":13,"TEXCOORD_0":14},"indices":15,"material":3}]},{"primitives":[{"mode":4,"attributes":{"POSITION":16,"NORMAL":17,"TEXCOORD_0":18},"indices":19,"material":4}]},{"primitives":[{"mode":4,"attributes":{"POSITION":20,"NORMAL":21,"TEXCOORD_0":22},"indices":23,"material":5}]},{"primitives":[{"mode":4,"attributes":{"POSITION":24,"NORMAL":25,"TEXCOORD_0":26},"indices":27,"material":6}]},{"primitives":[{"mode":4,"attributes":{"POSITION":28,"NORMAL":29,"TEXCOORD_0":30},"indices":31,"material":7}]}]}