{"asset":{"version":"2.0","generator":"THREE.GLTFExporter"},"scenes":[{"name":"AuxScene","nodes":[7]}],"scene":0,"nodes":[{"matrix":[1,0,0,0,0,1,0,0,0,0,1,0,0,2.5,0,1],"mesh":0},{"matrix":[1,0,0,0,0,1,0,0,0,0,1,0,0,25,0,1],"mesh":1},{"matrix":[0.7071067811865475,0,-0.7071067811865476,0,0,1,0,0,0.7071067811865476,0,0.7071067811865475,0,0,60,0,1],"mesh":2},{"matrix":[1,0,0,0,0,1,0,0,0,0,1,0,0,17.5,35,1],"mesh":3},{"matrix":[1,0,0,0,0,1,0,0,0,0,1,0,-25,27.5,35,1],"mesh":4},{"matrix":[1,0,0,0,0,1,0,0,0,0,1,0,25,27.5,35,1],"mesh":5},{"matrix":[1,0,0,0,0,1,0,0,0,0,1,0,25,72.5,-10,1],"mesh":6},{"children":[0,1,2,3,4,5,6]}],"bufferViews":[{"buffer":0,"byteOffset":0,"byteLength":288,"target":34962,"byteStride":12},{"buffer":0,"byteOffset":288,"byteLength":288,"target":34962,"byteStride":12},{"buffer":0,"byteOffset":576,"byteLength":192,"target":34962,"byteStride":8},{"buffer":0,"byteOffset":768,"byteLength":72,"target":34963},{"buffer":0,"byteOffset":840,"byteLength":288,"target":34962,"byteStride":12},{"buffer":0,"byteOffset":1128,"byteLength":288,"target":34962,"byteStride":12},{"buffer":0,"byteOffset":1416,"byteLength":192,"target":34962,"byteStride":8},{"buffer":0,"byteOffset":1608,"byteLength":72,"target":34963},{"buffer":0,"byteOffset":1680,"byteLength":228,"target":34962,"byteStride":12},{"buffer":0,"byteOffset":1908,"byteLength":228,"target":34962,"byteStride":12},{"buffer":0,"byteOffset":2136,"byteLength":152,"target":34962,"byteStride":8},{"buffer":0,"byteOffset":2288,"byteLength":72,"target":34963},{"buffer":0,"byteOffset":2360,"byteLength":288,"target":34962,"byteStride":12},{"buffer":0,"byteOffset":2648,"byteLength":288,"target":34962,"byteStride":12},{"buffer":0,"byteOffset":2936,"byteLength":192,"target":34962,"byteStride":8},{"buffer":0,"byteOffset":3128,"byteLength":72,"target":34963},{"buffer":0,"byteOffset":3200,"byteLength":288,"target":34962,"byteStride":12},{"buffer":0,"byteOffset":3488,"byteLength":288,"target":34962,"byteStride":12},{"buffer":0,"byteOffset":3776,"byteLength":192,"target":34962,"byteStride":8},{"buffer":0,"byteOffset":3968,"byteLength":72,"target":34963},{"buffer":0,"byteOffset":4040,"byteLength":288,"target":34962,"byteStride":12},{"buffer":0,"byteOffset":4328,"byteLength":288,"target":34962,"byteStride":12},{"buffer":0,"byteOffset":4616,"byteLength":192,"target":34962,"byteStride":8},{"buffer":0,"byteOffset":4808,"byteLength":72,"target":34963},{"buffer":0,"byteOffset":4880,"byteLength":288,"target":34962,"byteStride":12},{"buffer":0,"byteOffset":5168,"byteLength":288,"target":34962,"byteStride":12},{"buffer":0,"byteOffset":5456,"byteLength":192,"target":34962,"byteStride":8},{"buffer":0,"byteOffset":5648,"byteLength":72,"target":34963}],"buffers":[{"byteLength":5720,"uri":"data:application/octet-stream;base64,"}],"accessors":[{"bufferView":0,"componentType":5126,"count":24,"max":[50,2.5,40],"min":[-50,-2.5,-40],"type":"VEC3"},{"bufferView":1,"componentType":5126,"count":24,"max":[1,1,1],"min":[-1,-1,-1],"type":"VEC3"},{"bufferView":2,"componentType":5126,"count":24,"max":[1,1],"min":[0,0],"type":"VEC2"},{"bufferView":3,"componentType":5123,"count":36,"max":[23],"min":[0],"type":"SCALAR"},{"bufferView":4,"componentType":5126,"count":24,"max":[45,20,35],"min":[-45,-20,-35],"type":"VEC3"},{"bufferView":5,"componentType":5126,"count":24,"max":[1,1,1],"min":[-1,-1,-1],"type":"VEC3"},{"bufferView":6,"componentType":5126,"count":24,"max":[1,1],"min":[0,0],"type":"VEC2"},{"bufferView":7,"componentType":5123,"count":36,"max":[23],"min":[0],"type":"SCALAR"},{"bufferView":8,"componentType":5126,"count":19,"max":[70,15,70],"min":[-70,-15,-70],"type":"VEC3"},{"bufferView":9,"componentType":5126,"count":19,"max":[0.39391928911209106,0.9191450476646423,0.39391928911209106],"min":[-0.39391928911209106,-1,-0.39391928911209106],"type":"VEC3"},{"bufferView":10,"componentType":5126,"count":19,"max":[1,1],"min":[0,0],"type":"VEC2"},{"bufferView":11,"componentType":5123,"count":36,"max":[18],"min":[0],"type":"SCALAR"},{"bufferView":12,"componentType":5126,"count":24,"max":[6,12.5,1],"min":[-6,-12.5,-1],"type":"VEC3"},{"bufferView":13,"componentType":5126,"count":24,"max":[1,1,1],"min":[-1,-1,-1],"type":"VEC3"},{"bufferView":14,"componentType":5126,"count":24,"max":[1,1],"min":[0,0],"type":"VEC2"},{"bufferView":15,"componentType":5123,"count":36,"max":[23],"min":[0],"type":"SCALAR"},{"bufferView":16,"componentType":5126,"count":24,"max":[10,7.5,1],"min":[-10,-7.5,-1],"type":"VEC3"},{"bufferView":17,"componentType":5126,"count":24,"max":[1,1,1],"min":[-1,-1,-1],"type":"VEC3"},{"bufferView":18,"componentType":5126,"count":24,"max":[1,1],"min":[0,0],"type":"VEC2"},{"bufferView":19,"componentType":5123,"count":36,"max":[23],"min":[0],"type":"SCALAR"},{"bufferView":20,"componentType":5126,"count":24,"max":[10,7.5,1],"min":[-10,-7.5,-1],"type":"VEC3"},{"bufferView":21,"componentType":5126,"count":24,"max":[1,1,1],"min":[-1,-1,-1],"type":"VEC3"},{"bufferView":22,"componentType":5126,"count":24,"max":[1,1],"min":[0,0],"type":"VEC2"},{"bufferView":23,"componentType":5123,"count":36,"max":[23],"min":[0],"type":"SCALAR"},{"bufferView":24,"componentType":5126,"count":24,"max":[5,12.5,5],"min":[-5,-12.5,-5],"type":"VEC3"},{"bufferView":25,"componentType":5126,"count":24,"max":[1,1,1],"min":[-1,-1,-1],"type":"VEC3"},{"bufferView":26,"componentType":5126,"count":24,"max":[1,1],"min":[0,0],"type":"VEC2"},{"bufferView":27,"componentType":5123,"count":36,"max":[23],"min":[0],"type":"SCALAR"}],"materials":[{"pbrMetallicRoughness":{"baseColorFactor":[0.5843137254901961,0.6470588235294118,0.6509803921568628,1],"metallicFactor":0,"roughnessFactor":1}},{"pbrMetallicRoughness":{"baseColorFactor":[0.9254901960784314,0.9411764705882353,0.9450980392156862,1],"metallicFactor":0,"roughnessFactor":1}},{"pbrMetallicRoughness":{"baseColorFactor":[0.9058823529411765,0.2980392156862745,0.23529411764705882,1],"metallicFactor":0,"roughnessFactor":1}},{"pbrMetallicRoughness":{"baseColorFactor":[0.4745098039215686,0.3333333333333333,0.2823529411764706,1],"metallicFactor":0,"roughnessFactor":1}},{"pbrMetallicRoughness":{"baseColorFactor":[0.20392156862745098,0.596078431372549,0.8588235294117647,1],"metallicFactor":0,"roughnessFactor":1}},{"pbrMetallicRoughness":{"baseColorFactor":[0.20392156862745098,0.596078431372549,0.8588235294117647,1],"metallicFactor":0,"roughnessFactor":1}},{"pbrMetallicRoughness":{"baseColorFactor":[0.7529411764705882,0.2235294117647059,0.16862745098039217,1],"metallicFactor":0,"roughnessFactor":1}}],"meshes":[{"primitives":[{"mode":4,"attributes":{"POSITION":0,"NORMAL":1,"TEXCOORD_0":2},"indices":3,"material":0}]},{"primitives":[{"mode":4,"attributes":{"POSITION":4,"NORMAL":5,"TEXCOORD_0":6},"indices":7,"material":1}]},{"primitives":[{"mode":4,"attributes":{"POSITION":8,"NORMAL":9,"TEXCOORD_0":10},"indices":11,"material":2}]},{"primitives":[{"mode":4,"attributes":{"POSITION":12,"NORMAL":13,"TEXCOORD_0":14},"indices":15,"material":3}]},{"primitives":[{"mode":4,"attributes":{"POSITION":16,"NORMAL":17,"TEXCOORD_0":18},"indices":19,"material":4}]},{"primitives":[{"mode":4,"attributes":{"POSITION":20,"NORMAL":21,"TEXCOORD_0":22},"indices":23,"material":5}]},{"primitives":[{"mode":4,"attributes":{"POSITION":24,"NORMAL":25,"TEXCOORD_0":26},"indices":27,"material":6}]}]}