{"asset":{"version":"2.0","generator":"THREE.GLTFExporter"},"scenes":[{"name":"AuxScene","nodes":[11]}],"scene":0,"nodes":[{"matrix":[0.9730955643272482,0,-0.23040187214220822,0,0,1,0,0,0.23040187214220822,0,0.9730955643272482,0,0,-6.047360956554142,0,1],"mesh":0},{"matrix":[0.9832284177765774,0,-0.18237839366703523,0,0,1,0,0,0.18237839366703523,0,0.9832284177765774,0,0,3.022238220175848,0,1],"mesh":1},{"matrix":[1,0,0,0,0,1,0,0,0,0,1,0,-120,32.5,0,1],"mesh":2},{"matrix":[1,0,0,0,0,1,0,0,0,0,1,0,120,32.5,0,1],"mesh":3},{"matrix":[1,0,0,0,0,1,0,0,0,0,1,0,0,37.5,-140,1],"mesh":4},{"matrix":[1,0,0,0,0,1,0,0,0,0,1,0,0,110,-140,1],"mesh":5},{"matrix":[1,0,0,0,0,1,0,0,0,0,1,0,0,295,-140,1],"mesh":6},{"matrix":[0.9974495916929706,0,-0.07137444943063456,0,0,1,0,0,0.07137444943063456,0,0.9974495916929706,0,-260,187.14032015212433,-200,1],"mesh":7},{"matrix":[0.9924283027090053,0,-0.12282533933241553,0,0,1,0,0,0.12282533933241553,0,0.9924283027090053,0,260,224.6952188025948,-200,1],"mesh":8},{"matrix":[0.9923050973424314,0,0.1238167750679515,0,0,1,0,0,-0.1238167750679515,0,0.9923050973424314,0,-260,204.66156904671058,200,1],"mesh":9},{"matrix":[0.9686174516350506,0,-0.24855629621480185,0,0,1,0,0,0.24855629621480185,0,0.9686174516350506,0,260,240.64276157363724,200,1],"mesh":10},{"children":[0,1,2,3,4,5,6,7,8,9,10]}],"bufferViews":[{"buffer":0,"byteOffset":0,"byteLength":1488,"target":34962,"byteStride":12},{"buffer":0,"byteOffset":1488,"byteLength":1488,"target":34962,"byteStride":12},{"buffer":0,"byteOffset":2976,"byteLength":992,"target":34962,"byteStride":8},{"buffer":0,"byteOffset":3968,"byteLength":480,"target":34963},{"buffer":0,"byteOffset":4448,"byteLength":1344,"target":34962,"byteStride":12},{"buffer":0,"byteOffset":5792,"byteLength":1344,"target":34962,"byteStride":12},{"buffer":0,"byteOffset":7136,"byteLength":896,"target":34962,"byteStride":8},{"buffer":0,"byteOffset":8032,"byteLength":432,"target":34963},{"buffer":0,"byteOffset":8464,"byteLength":288,"target":34962,"byteStride":12},{"buffer":0,"byteOffset":8752,"byteLength":288,"target":34962,"byteStride":12},{"buffer":0,"byteOffset":9040,"byteLength":192,"target":34962,"byteStride":8},{"buffer":0,"byteOffset":9232,"byteLength":72,"target":34963},{"buffer":0,"byteOffset":9304,"byteLength":288,"target":34962,"byteStride":12},{"buffer":0,"byteOffset":9592,"byteLength":288,"target":34962,"byteStride":12},{"buffer":0,"byteOffset":9880,"byteLength":192,"target":34962,"byteStride":8},{"buffer":0,"byteOffset":10072,"byteLength":72,"target":34963},{"buffer":0,"byteOffset":10144,"byteLength":288,"target":34962,"byteStride":12},{"buffer":0,"byteOffset":10432,"byteLength":288,"target":34962,"byteStride":12},{"buffer":0,"byteOffset":10720,"byteLength":192,"target":34962,"byteStride":8},{"buffer":0,"byteOffset":10912,"byteLength":72,"target":34963},{"buffer":0,"byteOffset":10984,"byteLength":2352,"target":34962,"byteStride":12},{"buffer":0,"byteOffset":13336,"byteLength":2352,"target":34962,"byteStride":12},{"buffer":0,"byteOffset":15688,"byteLength":1568,"target":34962,"byteStride":8},{"buffer":0,"byteOffset":17256,"byteLength":768,"target":34963},{"buffer":0,"byteOffset":18024,"byteLength":1572,"target":34962,"byteStride":12},{"buffer":0,"byteOffset":19596,"byteLength":1572,"target":34962,"byteStride":12},{"buffer":0,"byteOffset":21168,"byteLength":1048,"target":34962,"byteStride":8},{"buffer":0,"byteOffset":22216,"byteLength":576,"target":34963},{"buffer":0,"byteOffset":22792,"byteLength":480,"target":34962,"byteStride":12},{"buffer":0,"byteOffset":23272,"byteLength":480,"target":34962,"byteStride":12},{"buffer":0,"byteOffset":23752,"byteLength":320,"target":34962,"byteStride":8},{"buffer":0,"byteOffset":24072,"byteLength":144,"target":34963},{"buffer":0,"byteOffset":24216,"byteLength":480,"target":34962,"byteStride":12},{"buffer":0,"byteOffset":24696,"byteLength":480,"target":34962,"byteStride":12},{"buffer":0,"byteOffset":25176,"byteLength":320,"target":34962,"byteStride":8},{"buffer":0,"byteOffset":25496,"byteLength":144,"target":34963},{"buffer":0,"byteOffset":25640,"byteLength":480,"target":34962,"byteStride":12},{"buffer":0,"byteOffset":26120,"byteLength":480,"target":34962,"byteStride":12},{"buffer":0,"byteOffset":26600,"byteLength":320,"target":34962,"byteStride":8},{"buffer":0,"byteOffset":26920,"byteLength":144,"target":34963},{"buffer":0,"byteOffset":27064,"byteLength":480,"target":34962,"byteStride":12},{"buffer":0,"byteOffset":27544,"byteLength":480,"target":34962,"byteStride":12},{"buffer":0,"byteOffset":28024,"byteLength":320,"target":34962,"byteStride":8},{"buffer":0,"byteOffset":28344,"byteLength":144,"target":34963}],"buffers":[{"byteLength":28488,"uri":"data:application/octet-stream;base64,"}],"accessors":[{"bufferView":0,"componentType":5126,"count":124,"max":[250,5,250],"min":[-250,-5,-250],"type":"VEC3"},{"bufferView":1,"componentType":5126,"count":124,"max":[1,1,1],"min":[-1,-1,-1],"type":"VEC3"},{"bufferView":2,"componentType":5126,"count":124,"max":[1,1],"min":[0,0],"type":"VEC2"},{"bufferView":3,"componentType":5123,"count":240,"max":[123],"min":[0],"type":"SCALAR"},{"bufferView":4,"componentType":5126,"count":112,"max":[196.9615478515625,4,200],"min":[-196.9615478515625,-4,-200],"type":"VEC3"},{"bufferView":5,"componentType":5126,"count":112,"max":[0.9848077297210693,1,1],"min":[-0.9848077297210693,-1,-1],"type":"VEC3"},{"bufferView":6,"componentType":5126,"count":112,"max":[1,1],"min":[0,0],"type":"VEC2"},{"bufferView":7,"componentType":5123,"count":216,"max":[111],"min":[0],"type":"SCALAR"},{"bufferView":8,"componentType":5126,"count":24,"max":[65,17.5,32.5],"min":[-65,-17.5,-32.5],"type":"VEC3"},{"bufferView":9,"componentType":5126,"count":24,"max":[1,1,1],"min":[-1,-1,-1],"type":"VEC3"},{"bufferView":10,"componentType":5126,"count":24,"max":[1,1],"min":[0,0],"type":"VEC2"},{"bufferView":11,"componentType":5123,"count":36,"max":[23],"min":[0],"type":"SCALAR"},{"bufferView":12,"componentType":5126,"count":24,"max":[65,17.5,32.5],"min":[-65,-17.5,-32.5],"type":"VEC3"},{"bufferView":13,"componentType":5126,"count":24,"max":[1,1,1],"min":[-1,-1,-1],"type":"VEC3"},{"bufferView":14,"componentType":5126,"count":24,"max":[1,1],"min":[0,0],"type":"VEC2"},{"bufferView":15,"componentType":5123,"count":36,"max":[23],"min":[0],"type":"SCALAR"},{"bufferView":16,"componentType":5126,"count":24,"max":[80,22.5,40],"min":[-80,-22.5,-40],"type":"VEC3"},{"bufferView":17,"componentType":5126,"count":24,"max":[1,1,1],"min":[-1,-1,-1],"type":"VEC3"},{"bufferView":18,"componentType":5126,"count":24,"max":[1,1],"min":[0,0],"type":"VEC2"},{"bufferView":19,"componentType":5123,"count":36,"max":[23],"min":[0],"type":"SCALAR"},{"bufferView":20,"componentType":5126,"count":196,"max":[28,75,28],"min":[-28,-75,-28],"type":"VEC3"},{"bufferView":21,"componentType":5126,"count":196,"max":[1,1,1],"min":[-1,-1,-1],"type":"VEC3"},{"bufferView":22,"componentType":5126,"count":196,"max":[1,1],"min":[0,0],"type":"VEC2"},{"bufferView":23,"componentType":5123,"count":384,"max":[195],"min":[0],"type":"SCALAR"},{"bufferView":24,"componentType":5126,"count":131,"max":[45,110,45],"min":[-45,-110,-45],"type":"VEC3"},{"bufferView":25,"componentType":5126,"count":131,"max":[0.9797149300575256,0.20039623975753784,0.9797149300575256],"min":[-0.9797149300575256,-1,-0.9797149300575256],"type":"VEC3"},{"bufferView":26,"componentType":5126,"count":131,"max":[1,1],"min":[0,0],"type":"VEC2"},{"bufferView":27,"componentType":5123,"count":288,"max":[130],"min":[0],"type":"SCALAR"},{"bufferView":28,"componentType":5126,"count":40,"max":[25.980762481689453,40,30],"min":[-25.980762481689453,-40,-30],"type":"VEC3"},{"bufferView":29,"componentType":5126,"count":40,"max":[0.8660253882408142,1,1],"min":[-0.8660253882408142,-1,-1],"type":"VEC3"},{"bufferView":30,"componentType":5126,"count":40,"max":[1,1],"min":[0,0],"type":"VEC2"},{"bufferView":31,"componentType":5123,"count":72,"max":[39],"min":[0],"type":"SCALAR"},{"bufferView":32,"componentType":5126,"count":40,"max":[25.980762481689453,40,30],"min":[-25.980762481689453,-40,-30],"type":"VEC3"},{"bufferView":33,"componentType":5126,"count":40,"max":[0.8660253882408142,1,1],"min":[-0.8660253882408142,-1,-1],"type":"VEC3"},{"bufferView":34,"componentType":5126,"count":40,"max":[1,1],"min":[0,0],"type":"VEC2"},{"bufferView":35,"componentType":5123,"count":72,"max":[39],"min":[0],"type":"SCALAR"},{"bufferView":36,"componentType":5126,"count":40,"max":[25.980762481689453,40,30],"min":[-25.980762481689453,-40,-30],"type":"VEC3"},{"bufferView":37,"componentType":5126,"count":40,"max":[0.8660253882408142,1,1],"min":[-0.8660253882408142,-1,-1],"type":"VEC3"},{"bufferView":38,"componentType":5126,"count":40,"max":[1,1],"min":[0,0],"type":"VEC2"},{"bufferView":39,"componentType":5123,"count":72,"max":[39],"min":[0],"type":"SCALAR"},{"bufferView":40,"componentType":5126,"count":40,"max":[25.980762481689453,40,30],"min":[-25.980762481689453,-40,-30],"type":"VEC3"},{"bufferView":41,"componentType":5126,"count":40,"max":[0.8660253882408142,1,1],"min":[-0.8660253882408142,-1,-1],"type":"VEC3"},{"bufferView":42,"componentType":5126,"count":40,"max":[1,1],"min":[0,0],"type":"VEC2"},{"bufferView":43,"componentType":5123,"count":72,"max":[39],"min":[0],"type":"SCALAR"}],"materials":[{"pbrMetallicRoughness":{"baseColorFactor":[0.9411764705882353,0.9725490196078431,1,0.4],"metallicFactor":0.5,"roughnessFactor":0.5},"emissiveFactor":[0.17333333333333334,0.17333333333333334,0.17333333333333334],"alphaMode":"BLEND"},{"pbrMetallicRoughness":{"baseColorFactor":[0.8784313725490196,1,1,0.3],"metallicFactor":0.5,"roughnessFactor":0.5},"emissiveFactor":[0.17333333333333334,0.17333333333333334,0.17333333333333334],"alphaMode":"BLEND"},{"pbrMetallicRoughness":{"baseColorFactor":[0.9411764705882353,0.9019607843137255,0.5490196078431373,0.9],"metallicFactor":0.5,"roughnessFactor":0.5},"alphaMode":"BLEND"},{"pbrMetallicRoughness":{"baseColorFactor":[0.9411764705882353,0.9019607843137255,0.5490196078431373,0.9],"metallicFactor":0.5,"roughnessFactor":0.5},"alphaMode":"BLEND"},{"pbrMetallicRoughness":{"baseColorFactor":[0.9411764705882353,0.9019607843137255,0.5490196078431373,0.9],"metallicFactor":0.5,"roughnessFactor":0.5},"alphaMode":"BLEND"},{"pbrMetallicRoughness":{"baseColorFactor":[1,1,1,0.95],"metallicFactor":0.5,"roughnessFactor":0.5},"alphaMode":"BLEND"},{"pbrMetallicRoughness":{"baseColorFactor":[0.6784313725490196,0.8470588235294118,0.9019607843137255,0.8],"metallicFactor":0.5,"roughnessFactor":0.5},"alphaMode":"BLEND"},{"pbrMetallicRoughness":{"baseColorFactor":[0.5294117647058824,0.807843137254902,0.9803921568627451,0.7],"metallicFactor":0.5,"roughnessFactor":0.5},"emissiveFactor":[0.3176470588235294,0.48470588235294115,0.588235294117647],"alphaMode":"BLEND"},{"pbrMetallicRoughness":{"baseColorFactor":[0.5294117647058824,0.807843137254902,0.9803921568627451,0.7],"metallicFactor":0.5,"roughnessFactor":0.5},"emissiveFactor":[0.3176470588235294,0.48470588235294115,0.588235294117647],"alphaMode":"BLEND"},{"pbrMetallicRoughness":{"baseColorFactor":[0.5294117647058824,0.807843137254902,0.9803921568627451,0.7],"metallicFactor":0.5,"roughnessFactor":0.5},"emissiveFactor":[0.3176470588235294,0.48470588235294115,0.588235294117647],"alphaMode":"BLEND"},{"pbrMetallicRoughness":{"baseColorFactor":[0.5294117647058824,0.807843137254902,0.9803921568627451,0.7],"metallicFactor":0.5,"roughnessFactor":0.5},"emissiveFactor":[0.3176470588235294,0.48470588235294115,0.588235294117647],"alphaMode":"BLEND"}],"meshes":[{"primitives":[{"mode":4,"attributes":{"POSITION":0,"NORMAL":1,"TEXCOORD_0":2},"indices":3,"material":0}]},{"primitives":[{"mode":4,"attributes":{"POSITION":4,"NORMAL":5,"TEXCOORD_0":6},"indices":7,"material":1}]},{"primitives":[{"mode":4,"attributes":{"POSITION":8,"NORMAL":9,"TEXCOORD_0":10},"indices":11,"material":2}]},{"primitives":[{"mode":4,"attributes":{"POSITION":12,"NORMAL":13,"TEXCOORD_0":14},"indices":15,"material":3}]},{"primitives":[{"mode":4,"attributes":{"POSITION":16,"NORMAL":17,"TEXCOORD_0":18},"indices":19,"material":4}]},{"primitives":[{"mode":4,"attributes":{"POSITION":20,"NORMAL":21,"TEXCOORD_0":22},"indices":23,"material":5}]},{"primitives":[{"mode":4,"attributes":{"POSITION":24,"NORMAL":25,"TEXCOORD_0":26},"indices":27,"material":6}]},{"primitives":[{"mode":4,"attributes":{"POSITION":28,"NORMAL":29,"TEXCOORD_0":30},"indices":31,"material":7}]},{"primitives":[{"mode":4,"attributes":{"POSITION":32,"NORMAL":33,"TEXCOORD_0":34},"indices":35,"material":8}]},{"primitives":[{"mode":4,"attributes":{"POSITION":36,"NORMAL":37,"TEXCOORD_0":38},"indices":39,"material":9}]},{"primitives":[{"mode":4,"attributes":{"POSITION":40,"NORMAL":41,"TEXCOORD_0":42},"indices":43,"material":10}]}]}